<?xml version="1.0" encoding="UTF-8"?>
<svg id="Layer_2" data-name="Layer 2" xmlns="http://www.w3.org/2000/svg" xmlns:xlink="http://www.w3.org/1999/xlink" viewBox="0 0 160 50">
  <defs>
    <style>
      .cls-1 {
        fill: none;
      }

      .cls-1, .cls-2 {
        stroke-width: 0px;
      }

      .cls-2 {
        fill: #fff;
      }

      .cls-3 {
        clip-path: url(#clippath);
      }
    </style>
    <clipPath id="clippath">
      <rect class="cls-1" width="160" height="50"/>
    </clipPath>
  </defs>
  <g id="Layer_2-2" data-name="Layer 2">
    <g class="cls-3">
      <g>
        <g>
          <path class="cls-2" d="M52.82,17.22v-.06s.04-.48.04-.48v-.06c-.2.08-.4.17-.6.26v.05c.19.09.38.19.56.29Z"/>
          <path class="cls-2" d="M53.48,17.63v-.06s.2-1.17.2-1.17v-.06c-.21.06-.42.13-.63.21v.06s-.06.64-.06.64v.06c.17.1.33.21.49.32Z"/>
          <path class="cls-2" d="M54.07,18.08v-.06s.48-1.81.48-1.81v-.06c-.21.04-.43.09-.66.14v.06s-.26,1.33-.26,1.33v.06c.14.11.29.22.43.34Z"/>
          <path class="cls-2" d="M54.6,18.54l.02-.06.85-2.39.02-.05c-.23.02-.46.04-.69.08l-.02.05-.55,1.97-.02.06c.13.11.26.23.39.35Z"/>
          <path class="cls-2" d="M55.07,19.02l.03-.06,1.34-2.89.02-.05c-.11,0-.22,0-.33,0-.13,0-.26,0-.38,0l-.02.05-.98,2.53-.02.06c.12.11.23.23.34.35Z"/>
          <path class="cls-2" d="M55.48,19.51l.03-.05,1.91-3.3.03-.05c-.24-.03-.47-.06-.71-.08l-.02.05-1.5,3.02-.03.06c.1.12.2.23.29.35Z"/>
          <path class="cls-2" d="M55.84,20.01l.04-.05,2.55-3.59.04-.05c-.23-.06-.47-.11-.71-.16l-.03.05-2.1,3.39-.03.05c.09.11.17.23.25.35Z"/>
          <path class="cls-2" d="M56.15,20.5l.04-.05,3.22-3.76.04-.05c-.23-.09-.45-.17-.69-.24l-.04.05-2.75,3.66-.04.05c.07.11.14.23.21.34Z"/>
          <path class="cls-2" d="M56.42,21l.05-.04,3.91-3.81.05-.05c-.21-.12-.43-.22-.65-.32l-.04.05-3.44,3.79-.04.05c.06.11.12.22.18.34Z"/>
          <path class="cls-2" d="M56.65,21.49l.05-.04,4.6-3.73.05-.04c-.2-.14-.4-.27-.61-.4l-.05.05-4.14,3.8-.05.04c.05.11.1.22.15.33Z"/>
          <path class="cls-2" d="M56.85,21.98l.05-.03,5.26-3.53.06-.04c-.18-.16-.36-.32-.55-.47l-.05.04-4.83,3.68-.05.04c.04.1.08.21.12.32Z"/>
          <path class="cls-2" d="M57.01,22.46l.05-.03,5.88-3.22.06-.03c-.16-.18-.32-.36-.49-.53l-.06.04-5.49,3.43-.05.03c.04.1.07.2.1.31Z"/>
          <path class="cls-2" d="M57.14,22.94l.05-.02,6.43-2.79.06-.03c-.13-.2-.27-.39-.41-.58l-.06.03-6.1,3.07-.05.03c.03.1.05.2.08.3Z"/>
          <path class="cls-2" d="M57.24,23.41l.05-.02,6.9-2.27.06-.02c-.1-.21-.21-.42-.33-.62l-.06.02-6.63,2.6-.05.02c.02.1.04.19.06.29Z"/>
          <path class="cls-2" d="M57.31,23.88h.05s7.27-1.68,7.27-1.68h.06c-.07-.23-.16-.45-.25-.66l-.06.02-7.07,2.03h-.05c.02.11.03.2.04.29Z"/>
          <path class="cls-2" d="M57.36,24.34h.05s7.52-1.02,7.52-1.02h.05c-.04-.23-.09-.45-.15-.67h-.06s-7.39,1.41-7.39,1.41h-.05c.01.1.02.19.03.28Z"/>
          <path class="cls-2" d="M57.39,24.81h.05s7.65-.34,7.65-.34h.05c-.01-.22-.04-.44-.06-.66h-.05s-7.59.73-7.59.73h-.05c0,.09,0,.18.01.27Z"/>
          <path class="cls-2" d="M65.14,25.63c0-.15.01-.31.01-.46,0-.04,0-.09,0-.13,0-.02,0-.04,0-.05h-.05s-7.66.03-7.66.03h-.05v.02c0,.08,0,.16,0,.24h.05s7.65.35,7.65.35h.05Z"/>
          <path class="cls-2" d="M65.04,26.8c.03-.21.05-.42.07-.63h-.05s-7.62-.67-7.62-.67h-.05c0,.08,0,.16-.02.25h.05s7.57,1.04,7.57,1.04h.05Z"/>
          <path class="cls-2" d="M64.83,27.95c.05-.2.09-.4.12-.61h-.05s-7.5-1.37-7.5-1.37h-.05c0,.07-.02.16-.03.24h.05s7.41,1.73,7.41,1.73h.06Z"/>
          <path class="cls-2" d="M64.51,29.09c.06-.19.12-.39.18-.58l-.06-.02-7.3-2.04h-.05c-.01.07-.03.15-.04.23l.05.02,7.16,2.37.06.02Z"/>
          <path class="cls-2" d="M64.09,30.18c.08-.18.15-.36.22-.55l-.06-.02-7.01-2.68-.05-.02c-.02.08-.03.16-.05.24l.05.02,6.84,2.98.06.03Z"/>
          <path class="cls-2" d="M63.57,31.24c.09-.17.18-.34.26-.51l-.06-.03-6.65-3.28-.05-.03c-.02.08-.04.16-.07.23l.05.03,6.46,3.55.06.03Z"/>
          <path class="cls-2" d="M62.96,32.24c.1-.15.2-.31.3-.47l-.06-.03-6.23-3.82-.05-.03c-.03.08-.05.15-.08.23l.05.03,6.01,4.05.06.04Z"/>
          <path class="cls-2" d="M62.26,33.18c.11-.14.23-.28.33-.42l-.05-.04-5.75-4.3-.05-.04c-.03.08-.06.15-.09.23l.05.04,5.51,4.49.05.04Z"/>
          <path class="cls-2" d="M61.48,34.05c.12-.13.24-.25.36-.38l-.05-.05-5.22-4.71-.05-.04c-.04.07-.07.15-.11.22l.05.04,4.97,4.86.05.05Z"/>
          <path class="cls-2" d="M60.63,34.84c.13-.11.25-.22.38-.34l-.05-.05-4.65-5.04-.04-.05c-.04.07-.08.14-.12.22l.04.05,4.4,5.16.04.05Z"/>
          <path class="cls-2" d="M59.71,35.56c.13-.09.27-.19.4-.29l-.04-.05-4.05-5.29-.04-.05c-.04.07-.09.14-.14.21l.04.05,3.8,5.37.04.06Z"/>
          <path class="cls-2" d="M58.72,36.2c.14-.08.27-.16.41-.25l-.04-.06-3.44-5.46-.03-.05c-.05.07-.1.13-.15.2l.03.06,3.18,5.51.03.06Z"/>
          <path class="cls-2" d="M57.68,36.74c.14-.06.28-.13.42-.2l-.03-.06-2.81-5.55-.03-.06c-.06.06-.11.13-.17.19l.03.06,2.57,5.55.03.06Z"/>
          <path class="cls-2" d="M56.59,37.18c.14-.05.28-.1.42-.16l-.02-.06-2.19-5.54-.02-.06c-.06.06-.12.12-.19.18l.02.06,1.96,5.52.02.06Z"/>
          <path class="cls-2" d="M55.46,37.52c.14-.03.28-.07.42-.11l-.02-.06-1.59-5.45-.02-.06c-.07.06-.13.11-.2.17v.06s1.39,5.4,1.39,5.4v.06Z"/>
          <path class="cls-2" d="M54.31,37.76c.14-.02.27-.05.41-.07v-.05s-1.03-5.27-1.03-5.27v-.06c-.08.05-.15.1-.23.15v.06s.84,5.19.84,5.19v.05Z"/>
          <path class="cls-2" d="M53.15,37.89c.13,0,.26-.02.4-.03v-.05s-.5-5.02-.5-5.02v-.06c-.08.05-.16.09-.24.13v.06s.34,4.92.34,4.92v.05Z"/>
          <path class="cls-2" d="M52.28,37.92s.06,0,.09,0v-.05s-.03-4.7-.03-4.7v-.06s-.05.02-.07.03c-.06.03-.12.05-.17.08v.06s-.1,4.58-.1,4.58v.05c.1,0,.19,0,.29,0Z"/>
          <path class="cls-2" d="M51.19,37.87v-.05s.37-4.32.37-4.32v-.06c-.08.03-.16.06-.25.09v.06s-.48,4.19-.48,4.19v.05c.12.01.24.03.36.04Z"/>
          <path class="cls-2" d="M50.01,37.72v-.05s.7-3.9.7-3.9v-.06c-.08.02-.16.04-.25.06v.06s-.79,3.77-.79,3.77v.05c.1.02.22.05.33.07Z"/>
          <path class="cls-2" d="M48.85,37.46l.02-.06.95-3.45.02-.06c-.09.01-.17.03-.26.04l-.02.05-1.01,3.32-.02.06c.11.03.21.06.32.09Z"/>
          <path class="cls-2" d="M47.71,37.09l.02-.06,1.13-2.98.02-.05c-.09,0-.17,0-.26,0l-.02.05-1.16,2.85-.02.06c.1.04.2.08.3.12Z"/>
          <path class="cls-2" d="M46.62,36.62l.03-.06,1.23-2.51.02-.05c-.09,0-.17-.01-.26-.02l-.03.05-1.24,2.39-.03.06c.09.05.18.09.27.14Z"/>
          <path class="cls-2" d="M45.58,36.05l.04-.06,1.25-2.06.03-.05c-.08-.01-.16-.03-.24-.05l-.03.05-1.25,1.95-.04.06c.08.05.16.1.24.15Z"/>
          <path class="cls-2" d="M44.6,35.38l.04-.05,1.21-1.63.04-.05c-.08-.02-.15-.05-.23-.07l-.04.05-1.2,1.54-.04.05c.07.06.14.11.22.16Z"/>
          <path class="cls-2" d="M43.68,34.63l.04-.05,1.12-1.25.04-.05c-.07-.03-.14-.06-.21-.1l-.04.05-1.1,1.17-.05.05c.06.06.13.12.19.17Z"/>
          <path class="cls-2" d="M42.83,33.8l.05-.05.99-.92.05-.05c-.06-.04-.13-.08-.19-.11l-.05.05-.96.86-.05.05c.05.06.11.12.16.18Z"/>
          <path class="cls-2" d="M42.07,32.9l.05-.04.83-.64.05-.04c-.06-.04-.11-.09-.17-.13l-.05.04-.8.59-.05.04c.04.06.09.12.14.18Z"/>
          <path class="cls-2" d="M41.39,31.93l.06-.04.65-.41.06-.04s-.1-.09-.14-.14l-.06.03-.62.38-.06.03c.04.06.07.12.11.18Z"/>
          <path class="cls-2" d="M40.8,30.89l.06-.03.47-.24.06-.03s-.08-.1-.12-.15l-.06.03-.44.22-.06.03c.03.06.06.12.09.17Z"/>
          <path class="cls-2" d="M40.3,29.81l.06-.02.3-.12.06-.02s-.06-.1-.09-.15l-.06.02-.28.11-.06.02c.02.06.04.11.06.17Z"/>
          <path class="cls-2" d="M39.92,28.68l.06-.02.16-.05.06-.02s-.04-.1-.06-.15l-.06.02-.14.04-.06.02c.01.05.03.1.04.16Z"/>
          <path class="cls-2" d="M39.63,27.53h.05s.05-.02.05-.02h.06c-.01-.06-.03-.1-.04-.15h-.06s-.04.02-.04.02h-.05c0,.06.02.11.03.15Z"/>
          <path class="cls-2" d="M39.46,26.35h.08c0-.05-.01-.09-.02-.14h-.07s0,.09.01.14Z"/>
        </g>
        <g>
          <path class="cls-2" d="M51.77,32.78v.06s-.04.48-.04.48v.06c.2-.08.4-.17.6-.26v-.05c-.19-.09-.38-.19-.56-.29Z"/>
          <path class="cls-2" d="M51.12,32.37v.06s-.2,1.17-.2,1.17v.06c.21-.06.42-.13.63-.21v-.06s.06-.64.06-.64v-.06c-.17-.1-.33-.21-.49-.32Z"/>
          <path class="cls-2" d="M50.53,31.92v.06s-.48,1.81-.48,1.81v.06c.21-.04.43-.09.66-.14v-.06s.26-1.33.26-1.33v-.06c-.14-.11-.29-.22-.43-.34Z"/>
          <path class="cls-2" d="M50,31.46l-.02.06-.85,2.39-.02.05c.23-.02.46-.04.69-.08l.02-.05.55-1.97.02-.06c-.13-.11-.26-.23-.39-.35Z"/>
          <path class="cls-2" d="M49.53,30.98l-.03.06-1.34,2.89-.02.05c.11,0,.22,0,.33,0,.13,0,.26,0,.38,0l.02-.05.98-2.53.02-.06c-.12-.11-.23-.23-.34-.35Z"/>
          <path class="cls-2" d="M49.12,30.49l-.03.05-1.91,3.3-.03.05c.24.03.47.06.71.08l.02-.05,1.5-3.02.03-.06c-.1-.12-.2-.23-.29-.35Z"/>
          <path class="cls-2" d="M48.76,29.99l-.04.05-2.55,3.59-.04.05c.23.06.47.11.71.16l.03-.05,2.1-3.39.03-.05c-.09-.11-.17-.23-.25-.35Z"/>
          <path class="cls-2" d="M48.45,29.5l-.04.05-3.22,3.76-.04.05c.23.09.45.17.69.24l.04-.05,2.75-3.66.04-.05c-.07-.11-.14-.23-.21-.34Z"/>
          <path class="cls-2" d="M48.18,29l-.05.04-3.91,3.81-.05.05c.21.12.43.22.65.32l.04-.05,3.44-3.79.04-.05c-.06-.11-.12-.22-.18-.34Z"/>
          <path class="cls-2" d="M47.95,28.51l-.05.04-4.6,3.73-.05.04c.2.14.4.27.61.4l.05-.05,4.14-3.8.05-.04c-.05-.11-.1-.22-.15-.33Z"/>
          <path class="cls-2" d="M47.75,28.02l-.05.03-5.26,3.53-.06.04c.18.16.36.32.55.47l.05-.04,4.83-3.68.05-.04c-.04-.1-.08-.21-.12-.32Z"/>
          <path class="cls-2" d="M47.59,27.54l-.05.03-5.88,3.22-.06.03c.16.18.32.36.49.53l.06-.04,5.49-3.43.05-.03c-.04-.1-.07-.2-.1-.31Z"/>
          <path class="cls-2" d="M47.46,27.06l-.05.02-6.43,2.79-.06.03c.13.2.27.39.41.58l.06-.03,6.1-3.07.05-.03c-.03-.1-.05-.2-.08-.3Z"/>
          <path class="cls-2" d="M47.36,26.59l-.05.02-6.9,2.27-.06.02c.1.21.21.42.33.62l.06-.02,6.63-2.6.05-.02c-.02-.1-.04-.19-.06-.29Z"/>
          <path class="cls-2" d="M47.29,26.12h-.05s-7.27,1.68-7.27,1.68h-.06c.07.23.16.45.25.66l.06-.02,7.07-2.03h.05c-.02-.11-.03-.2-.04-.29Z"/>
          <path class="cls-2" d="M47.24,25.66h-.05s-7.52,1.02-7.52,1.02h-.05c.04.23.09.45.15.67h.06s7.39-1.41,7.39-1.41h.05c-.01-.1-.02-.19-.03-.28Z"/>
          <path class="cls-2" d="M47.21,25.19h-.05s-7.65.34-7.65.34h-.05c.01.22.04.44.06.66h.05s7.59-.73,7.59-.73h.05c0-.09,0-.18-.01-.27Z"/>
          <path class="cls-2" d="M39.46,24.37c0,.15-.01.31-.01.46,0,.04,0,.09,0,.13,0,.02,0,.04,0,.05h.05s7.66-.03,7.66-.03h.05v-.02c0-.08,0-.16,0-.24h-.05s-7.65-.35-7.65-.35h-.05Z"/>
          <path class="cls-2" d="M39.56,23.2c-.03.21-.05.42-.07.63h.05s7.62.67,7.62.67h.05c0-.08,0-.16.02-.25h-.05s-7.57-1.04-7.57-1.04h-.05Z"/>
          <path class="cls-2" d="M39.77,22.05c-.05.2-.09.4-.12.61h.05s7.5,1.37,7.5,1.37h.05c0-.07.02-.16.03-.24h-.05s-7.41-1.73-7.41-1.73h-.06Z"/>
          <path class="cls-2" d="M40.09,20.91c-.06.19-.12.39-.18.58l.06.02,7.3,2.04h.05c.01-.07.03-.15.04-.23l-.05-.02-7.16-2.37-.06-.02Z"/>
          <path class="cls-2" d="M40.51,19.82c-.08.18-.15.36-.22.55l.06.02,7.01,2.68.05.02c.02-.08.03-.16.05-.24l-.05-.02-6.84-2.98-.06-.03Z"/>
          <path class="cls-2" d="M41.03,18.76c-.09.17-.18.34-.26.51l.06.03,6.65,3.28.05.03c.02-.08.04-.16.07-.23l-.05-.03-6.46-3.55-.06-.03Z"/>
          <path class="cls-2" d="M41.64,17.76c-.1.15-.2.31-.3.47l.06.03,6.23,3.82.05.03c.03-.08.05-.15.08-.23l-.05-.03-6.01-4.05-.06-.04Z"/>
          <path class="cls-2" d="M42.34,16.82c-.11.14-.23.28-.33.42l.05.04,5.75,4.3.05.04c.03-.08.06-.15.09-.23l-.05-.04-5.51-4.49-.05-.04Z"/>
          <path class="cls-2" d="M43.12,15.95c-.12.13-.24.25-.36.38l.05.05,5.22,4.71.05.04c.04-.07.07-.15.11-.22l-.05-.04-4.97-4.86-.05-.05Z"/>
          <path class="cls-2" d="M43.97,15.16c-.13.11-.25.22-.38.34l.05.05,4.65,5.04.04.05c.04-.07.08-.14.12-.22l-.04-.05-4.4-5.16-.04-.05Z"/>
          <path class="cls-2" d="M44.89,14.44c-.13.09-.27.19-.4.29l.04.05,4.05,5.29.04.05c.04-.07.09-.14.14-.21l-.04-.05-3.8-5.37-.04-.06Z"/>
          <path class="cls-2" d="M45.88,13.8c-.14.08-.27.16-.41.25l.04.06,3.44,5.46.03.05c.05-.07.1-.13.15-.2l-.03-.06-3.18-5.51-.03-.06Z"/>
          <path class="cls-2" d="M46.92,13.26c-.14.06-.28.13-.42.2l.03.06,2.81,5.55.03.06c.06-.06.11-.13.17-.19l-.03-.06-2.57-5.55-.03-.06Z"/>
          <path class="cls-2" d="M48.01,12.82c-.14.05-.28.1-.42.16l.02.06,2.19,5.54.02.06c.06-.06.12-.12.19-.18l-.02-.06-1.96-5.52-.02-.06Z"/>
          <path class="cls-2" d="M49.13,12.48c-.14.03-.28.07-.42.11l.02.06,1.59,5.45.02.06c.07-.06.13-.11.2-.17v-.06s-1.39-5.4-1.39-5.4v-.06Z"/>
          <path class="cls-2" d="M50.28,12.24c-.14.02-.27.05-.41.07v.05s1.03,5.27,1.03,5.27v.06c.08-.05.15-.1.23-.15v-.06s-.84-5.19-.84-5.19v-.05Z"/>
          <path class="cls-2" d="M51.45,12.11c-.13,0-.26.02-.4.03v.05s.5,5.02.5,5.02v.06c.08-.05.16-.09.24-.13v-.06s-.34-4.92-.34-4.92v-.05Z"/>
          <path class="cls-2" d="M52.32,12.08s-.06,0-.09,0v.05s.03,4.7.03,4.7v.06s.05-.02.07-.03c.06-.03.12-.05.17-.08v-.06s.1-4.58.1-4.58v-.05c-.1,0-.19,0-.29,0Z"/>
          <path class="cls-2" d="M53.41,12.13v.05s-.37,4.32-.37,4.32v.06c.08-.03.16-.06.25-.09v-.06s.48-4.19.48-4.19v-.05c-.12-.01-.24-.03-.36-.04Z"/>
          <path class="cls-2" d="M54.59,12.28v.05s-.7,3.9-.7,3.9v.06c.08-.02.16-.04.25-.06v-.06s.79-3.77.79-3.77v-.05c-.1-.02-.22-.05-.33-.07Z"/>
          <path class="cls-2" d="M55.75,12.54l-.02.06-.95,3.45-.02.06c.09-.01.17-.03.26-.04l.02-.05,1.01-3.32.02-.06c-.11-.03-.21-.06-.32-.09Z"/>
          <path class="cls-2" d="M56.89,12.91l-.02.06-1.13,2.98-.02.05c.09,0,.17,0,.26,0l.02-.05,1.16-2.85.02-.06c-.1-.04-.2-.08-.3-.12Z"/>
          <path class="cls-2" d="M57.98,13.38l-.03.06-1.23,2.51-.02.05c.09,0,.17.01.26.02l.03-.05,1.24-2.39.03-.06c-.09-.05-.18-.09-.27-.14Z"/>
          <path class="cls-2" d="M59.02,13.95l-.04.06-1.25,2.06-.03.05c.08.01.16.03.24.05l.03-.05,1.25-1.95.04-.06c-.08-.05-.16-.1-.24-.15Z"/>
          <path class="cls-2" d="M60,14.62l-.04.05-1.21,1.63-.04.05c.08.02.15.05.23.07l.04-.05,1.2-1.54.04-.05c-.07-.06-.14-.11-.22-.16Z"/>
          <path class="cls-2" d="M60.92,15.37l-.04.05-1.12,1.25-.04.05c.07.03.14.06.21.1l.04-.05,1.1-1.17.05-.05c-.06-.06-.13-.12-.19-.17Z"/>
          <path class="cls-2" d="M61.77,16.2l-.05.05-.99.92-.05.05c.06.04.13.08.19.11l.05-.05.96-.86.05-.05c-.05-.06-.11-.12-.16-.18Z"/>
          <path class="cls-2" d="M62.53,17.1l-.05.04-.83.64-.05.04c.06.04.11.09.17.13l.05-.04.8-.59.05-.04c-.04-.06-.09-.12-.14-.18Z"/>
          <path class="cls-2" d="M63.21,18.07l-.06.04-.65.41-.06.04s.1.09.14.14l.06-.03.62-.38.06-.03c-.04-.06-.07-.12-.11-.18Z"/>
          <path class="cls-2" d="M63.8,19.11l-.06.03-.47.24-.06.03s.08.1.12.15l.06-.03.44-.22.06-.03c-.03-.06-.06-.12-.09-.17Z"/>
          <path class="cls-2" d="M64.29,20.19l-.06.02-.3.12-.06.02s.06.1.09.15l.06-.02.28-.11.06-.02c-.02-.06-.04-.11-.06-.17Z"/>
          <path class="cls-2" d="M64.68,21.32l-.06.02-.16.05-.06.02s.04.1.06.15l.06-.02.14-.04.06-.02c-.01-.05-.03-.1-.04-.16Z"/>
          <path class="cls-2" d="M64.96,22.47h-.05s-.05.02-.05.02h-.06c.01.06.03.1.04.15h.06s.04-.02.04-.02h.05c0-.06-.02-.11-.03-.15Z"/>
          <path class="cls-2" d="M65.14,23.65h-.08c0,.05.01.09.02.14h.07s0-.09-.01-.14Z"/>
        </g>
        <g>
          <path class="cls-2" d="M36.94,14.85c.45,0,.69.21.69.66v2.92c0,.45-.24.69-.69.69h-9.36v15.94c0,.45-.21.66-.66.66h-3.25c-.45,0-.66-.21-.66-.66v-15.94h-9.36c-.45,0-.69-.24-.69-.69v-2.92c0-.45.24-.66.69-.66h23.27Z"/>
          <path class="cls-2" d="M85.93,14.85c4.56,0,6.41,2.12,6.41,6.14v1.7c0,3.4-1.31,5.39-4.44,5.96l5.1,6.32c.18.21.15.74-.39.74h-3.84c-.51,0-.66-.12-.83-.39l-4.71-6.2h-9.62v5.93c0,.45-.21.66-.66.66h-3.22c-.45,0-.69-.21-.69-.66V15.75c0-.6.3-.89.89-.89h16ZM73.59,25.49h11.41c2.03,0,2.77-.86,2.77-2.65v-1.25c0-1.79-.74-2.65-2.77-2.65h-11.03c-.27,0-.39.12-.39.36v6.2Z"/>
          <path class="cls-2" d="M99.61,14.85c.45,0,.66.21.66.66v11.89c0,3.16.89,4.08,3.96,4.08h8.25c3.07,0,3.93-.92,3.93-4.08v-11.89c0-.45.21-.66.66-.66h3.25c.45,0,.66.21.66.66v12.34c0,5.72-2.29,7.87-8.34,7.87h-8.58c-6.02,0-8.34-2.15-8.34-7.87v-12.34c0-.45.24-.66.69-.66h3.22Z"/>
          <path class="cls-2" d="M145.59,14.85c.45,0,.66.21.66.66v2.83c0,.45-.21.66-.66.66h-14.93c-1.13,0-1.58.63-1.58,1.67v1.01c0,1.1.51,1.67,1.55,1.67h11.17c3.43,0,5.21,1.85,5.21,5.13v2.38c0,2.89-1.67,4.86-5.27,4.86h-16.51c-.45,0-.69-.21-.69-.66v-2.83c0-.45.24-.66.69-.66h15.64c1.13,0,1.58-.63,1.58-1.67v-1.22c0-1.1-.51-1.67-1.55-1.67h-11.17c-3.43,0-5.21-1.85-5.21-5.13v-2.18c0-2.89,1.67-4.86,5.27-4.86h15.79Z"/>
        </g>
      </g>
    </g>
  </g>
</svg>